<svg xmlns="http://www.w3.org/2000/svg" width="256" height="256" viewBox="0 0 256 256"><path fill="currentColor" d="M136.25 20.24a8 8 0 0 0-8.5-6.49h-3.5a8 8 0 0 0-8.5 6.49l-29.32 94.05a8 8 0 0 0 2.23 8.16l80.23 72.93a8 8 0 0 0 11.19-1.44l29.32-47.22a8 8 0 0 0-2.23-11.12Zm-24.5 90.1a8 8 0 0 1-5-3.24L80.08 43.27a8 8 0 0 1 15-8.54l26.67 85.73a8 8 0 0 1-9.99 10.1Z"/><path fill="currentColor" d="M192.48 219.7a8 8 0 0 1-11.19 1.45L31.5 137.88a8 8 0 0 1-2.23-8.16L63.58 24.3a8 8 0 0 1 13.5-6.49l-34.25 110a8 8 0 0 0 2.23 8.16l149.79 83.27a8 8 0 0 1-2.37.46Z"/></svg>