<svg xmlns="http://www.w3.org/2000/svg" width="256" height="256" viewBox="0 0 256 256"><path fill="#44a8b3" d="M128.001 0c-43.06 0-82.35 19.45-107.98 51.3C-6.23 83.15-6.23 172.85 46.02 204.7c25.63 15.85 55.45 24.52 85.98 21.03c30.54-3.5 58.33-18.41 78.43-41.3c20.1-22.9 31.57-52.92 31.57-84.43c0-43.06-19.45-82.35-51.3-107.98C172.85-6.23 83.15-6.23 51.3 46.02c-15.85 25.63-24.52 55.45-21.03 85.98c3.5 30.54 18.41 58.33 41.3 78.43c22.9 20.1 52.92 31.57 84.43 31.57c43.06 0 82.35-19.45 107.98-51.3c26.25-31.85 26.25-78.15-5.9-109.98C222.18 43.15 177.33 0 128.001 0Zm-21.28 153.2c-20.2 0-36.6-16.4-36.6-36.6s16.4-36.6 36.6-36.6s36.6 16.4 36.6 36.6s-16.4 36.6-36.6 36.6Zm84.8 0c-20.2 0-36.6-16.4-36.6-36.6s16.4-36.6 36.6-36.6s36.6 16.4 36.6 36.6s-16.4 36.6-36.6 36.6Z"/></svg>